<svg xmlns="http://www.w3.org/2000/svg" viewBox="0 0 24 24" fill="currentColor">
  <path d="M12 .5C5.7.5.5 5.8.5 12.3c0 5.2 3.4 9.6 8.1 11.2.6.1.8-.3.8-.6v-2.1c-3.3.7-4-1.6-4-1.6-.6-1.4-1.4-1.8-1.4-1.8-1.1-.8.1-.8.1-.8 1.2.1 1.9 1.3 1.9 1.3 1.1 1.9 2.9 1.3 3.6 1 .1-.8.4-1.3.7-1.6-2.7-.3-5.5-1.4-5.5-6.1 0-1.4.5-2.5 1.2-3.4-.1-.3-.5-1.6.1-3.3 0 0 1-.3 3.4 1.3 1-.3 2-.4 3.1-.4s2.1.1 3.1.4c2.4-1.6 3.4-1.3 3.4-1.3.6 1.7.2 3 .1 3.3.8.9 1.2 2 1.2 3.4 0 4.7-2.8 5.8-5.5 6.1.4.4.8 1.1.8 2.3v3.4c0 .3.2.7.8.6 4.7-1.6 8.1-6 8.1-11.2C23.5 5.8 18.3.5 12 .5z"></path>
</svg>
